<?xml version="1.0" encoding="UTF-8" standalone="no"?><!DOCTYPE svg PUBLIC "-//W3C//DTD SVG 1.1//EN" "http://www.w3.org/Graphics/SVG/1.1/DTD/svg11.dtd"><svg width="100%" height="100%" viewBox="0 0 216 78" version="1.1" xmlns="http://www.w3.org/2000/svg" xmlns:xlink="http://www.w3.org/1999/xlink" xml:space="preserve" style="fill-rule:evenodd;clip-rule:evenodd;stroke-miterlimit:1.41421;"><path id="path4168" d="M7.975,18.493c0,4.759 0.036,8.888 0.078,9.742c0.036,1.125 0.115,2.917 0.427,3.413c0.509,0.852 2.035,1.796 6.649,1.796c3.636,0 6.999,-1.529 9.305,-4.176c2.034,-2.291 3.129,-6.598 3.129,-10.73c0,-5.699 -2.151,-9.381 -3.753,-11.311c-3.676,-4.444 -8.135,-5.071 -12.787,-5.071c-0.783,0 -2.229,0.133 -2.543,0.312c-0.35,0.181 -0.469,0.404 -0.469,0.899c-0.036,1.526 -0.036,6.105 -0.036,9.56l0,5.566l0,0ZM4.689,13.646c0,-7.002 0,-8.259 -0.079,-9.695c-0.078,-1.529 -0.391,-2.244 -1.681,-2.56c-0.313,-0.088 -0.977,-0.134 -1.33,-0.134c-0.154,0 -0.31,-0.091 -0.31,-0.27c0,-0.268 0.193,-0.359 0.623,-0.359c1.761,0 4.224,0.133 4.42,0.133c0.468,0 2.932,-0.133 5.277,-0.133c3.87,0 11.025,-0.404 15.679,5.118c1.954,2.334 3.792,6.06 3.792,11.401c0,5.656 -2.032,10.011 -4.223,12.658c-1.68,2.022 -5.199,5.162 -11.847,5.162c-1.68,0 -3.752,-0.133 -5.432,-0.268c-1.722,-0.135 -3.051,-0.269 -3.246,-0.269c-0.079,0 -0.745,0 -1.565,0.045c-0.783,0 -1.681,0.09 -2.267,0.09c-0.431,0 -0.627,-0.09 -0.627,-0.361c0,-0.133 0.079,-0.268 0.314,-0.268c0.35,0 0.82,-0.088 1.173,-0.18c0.78,-0.179 0.978,-1.165 1.133,-2.469c0.196,-1.885 0.196,-5.43 0.196,-9.741l0,-7.9l0,0Z" style="fill:#7f5b04;fill-rule:nonzero;"/><path id="path4170" d="M38.391,21.546c0,4.311 0,7.856 0.194,9.741c0.12,1.304 0.356,2.29 1.526,2.469c0.548,0.092 1.408,0.18 1.76,0.18c0.234,0 0.312,0.135 0.312,0.268c0,0.226 -0.195,0.36 -0.626,0.36c-2.149,0 -4.613,-0.134 -4.808,-0.134c-0.196,0 -2.658,0.134 -3.83,0.134c-0.431,0 -0.626,-0.089 -0.626,-0.36c0,-0.133 0.076,-0.268 0.312,-0.268c0.35,0 0.821,-0.088 1.172,-0.18c0.781,-0.179 0.979,-1.165 1.134,-2.469c0.196,-1.885 0.196,-5.43 0.196,-9.741l0,-7.9c0,-7.002 0,-8.259 -0.079,-9.695c-0.078,-1.529 -0.47,-2.29 -1.329,-2.516c-0.431,-0.132 -0.938,-0.178 -1.211,-0.178c-0.156,0 -0.314,-0.091 -0.314,-0.27c0,-0.268 0.195,-0.359 0.624,-0.359c1.293,0 3.755,0.133 3.951,0.133c0.195,0 2.659,-0.133 3.832,-0.133c0.43,0 0.626,0.091 0.626,0.359c0,0.179 -0.156,0.27 -0.313,0.27c-0.274,0 -0.508,0.046 -0.977,0.134c-1.056,0.224 -1.368,0.986 -1.447,2.56c-0.079,1.436 -0.079,2.693 -0.079,9.695l0,7.9Z" style="fill:#7f5b04;fill-rule:nonzero;"/><path id="path4172" d="M50.395,17.552c0,0.225 0.075,0.404 0.271,0.537c0.586,0.404 2.387,0.72 4.105,0.72c0.939,0 2.035,-0.137 2.934,-0.853c1.368,-1.077 2.383,-3.502 2.383,-6.914c0,-5.61 -2.579,-8.978 -6.763,-8.978c-1.173,0 -2.227,0.135 -2.62,0.27c-0.196,0.088 -0.31,0.268 -0.31,0.538l0,14.68ZM47.267,13.646c0,-7.002 0,-8.259 -0.08,-9.695c-0.077,-1.529 -0.391,-2.244 -1.681,-2.56c-0.314,-0.088 -0.978,-0.134 -1.331,-0.134c-0.156,0 -0.311,-0.091 -0.311,-0.27c0,-0.268 0.195,-0.359 0.624,-0.359c1.761,0 4.225,0.133 4.419,0.133c0.43,0 3.401,-0.133 4.614,-0.133c2.462,0 5.084,0.27 7.155,1.974c0.98,0.807 2.698,3.008 2.698,6.106c0,3.323 -1.212,6.645 -4.731,10.368c3.206,4.716 5.863,8.71 8.131,11.494c2.113,2.557 3.794,3.052 4.771,3.23c0.743,0.136 1.292,0.136 1.525,0.136c0.196,0 0.352,0.135 0.352,0.268c0,0.271 -0.236,0.36 -0.94,0.36l-2.773,0c-2.191,0 -3.168,-0.224 -4.183,-0.854c-1.683,-1.03 -3.051,-3.231 -5.281,-6.599c-1.64,-2.468 -3.478,-5.475 -4.262,-6.641c-0.156,-0.18 -0.273,-0.27 -0.508,-0.27l-4.809,-0.09c-0.196,0 -0.271,0.135 -0.271,0.36l0,1.076c0,4.311 0,7.856 0.194,9.741c0.116,1.304 0.351,2.29 1.524,2.469c0.548,0.092 1.408,0.18 1.76,0.18c0.235,0 0.313,0.135 0.313,0.268c0,0.226 -0.195,0.36 -0.627,0.36c-2.151,0 -4.611,-0.134 -4.81,-0.134c-0.036,0 -2.5,0.134 -3.673,0.134c-0.432,0 -0.624,-0.089 -0.624,-0.36c0,-0.133 0.076,-0.268 0.312,-0.268c0.351,0 0.821,-0.088 1.171,-0.18c0.783,-0.179 0.978,-1.165 1.133,-2.469c0.199,-1.885 0.199,-5.43 0.199,-9.741l0,-7.9l0,0Z" style="fill:#7f5b04;fill-rule:nonzero;"/><path id="path4174" d="M82.298,21.546c0,4.311 0,7.856 0.197,9.741c0.116,1.304 0.349,2.29 1.524,2.469c0.548,0.092 1.407,0.18 1.761,0.18c0.234,0 0.312,0.135 0.312,0.268c0,0.226 -0.198,0.36 -0.627,0.36c-2.151,0 -4.613,-0.134 -4.809,-0.134c-0.194,0 -2.66,0.134 -3.832,0.134c-0.43,0 -0.624,-0.089 -0.624,-0.36c0,-0.133 0.079,-0.268 0.312,-0.268c0.351,0 0.821,-0.088 1.172,-0.18c0.783,-0.179 0.976,-1.165 1.134,-2.469c0.197,-1.885 0.197,-5.43 0.197,-9.741l0,-18.987l-5.788,0.09c-2.422,0.044 -3.362,0.356 -3.988,1.435c-0.429,0.765 -0.546,1.077 -0.664,1.391c-0.117,0.361 -0.236,0.45 -0.391,0.45c-0.117,0 -0.194,-0.134 -0.194,-0.404c0,-0.45 0.778,-4.31 0.857,-4.667c0.079,-0.271 0.235,-0.854 0.392,-0.854c0.273,0 0.665,0.449 1.72,0.538c1.136,0.135 2.621,0.223 3.09,0.223l14.661,0c1.253,0 2.151,-0.088 2.777,-0.223c0.586,-0.089 0.939,-0.222 1.095,-0.222c0.196,0 0.196,0.267 0.196,0.538c0,1.345 -0.12,4.442 -0.12,4.937c0,0.404 -0.115,0.583 -0.272,0.583c-0.196,0 -0.275,-0.134 -0.313,-0.764l-0.04,-0.494c-0.117,-1.346 -1.054,-2.378 -4.808,-2.467l-4.927,-0.09l0,18.987Z" style="fill:#7f5b04;fill-rule:nonzero;"/><path id="path4176" d="M109.171,17.552c0,0.225 0.077,0.404 0.273,0.537c0.585,0.404 2.385,0.72 4.107,0.72c0.936,0 2.032,-0.137 2.93,-0.853c1.369,-1.077 2.388,-3.502 2.388,-6.914c0,-5.61 -2.582,-8.978 -6.765,-8.978c-1.175,0 -2.231,0.135 -2.622,0.27c-0.194,0.088 -0.311,0.268 -0.311,0.538l0,14.68ZM106.043,13.646c0,-7.002 0,-8.259 -0.078,-9.695c-0.079,-1.529 -0.389,-2.244 -1.68,-2.56c-0.313,-0.088 -0.978,-0.134 -1.331,-0.134c-0.157,0 -0.314,-0.091 -0.314,-0.27c0,-0.268 0.199,-0.359 0.627,-0.359c1.76,0 4.222,0.133 4.418,0.133c0.43,0 3.4,-0.133 4.611,-0.133c2.465,0 5.086,0.27 7.157,1.974c0.979,0.807 2.698,3.008 2.698,6.106c0,3.323 -1.21,6.645 -4.73,10.368c3.207,4.716 5.867,8.71 8.131,11.494c2.11,2.557 3.793,3.052 4.77,3.23c0.743,0.136 1.291,0.136 1.525,0.136c0.196,0 0.355,0.135 0.355,0.268c0,0.271 -0.237,0.36 -0.941,0.36l-2.774,0c-2.192,0 -3.167,-0.224 -4.184,-0.854c-1.683,-1.03 -3.052,-3.231 -5.279,-6.599c-1.642,-2.468 -3.479,-5.475 -4.263,-6.641c-0.155,-0.18 -0.274,-0.27 -0.507,-0.27l-4.81,-0.09c-0.196,0 -0.273,0.135 -0.273,0.36l0,1.076c0,4.311 0,7.856 0.195,9.741c0.116,1.304 0.35,2.29 1.527,2.469c0.545,0.092 1.403,0.18 1.759,0.18c0.234,0 0.311,0.135 0.311,0.268c0,0.226 -0.196,0.36 -0.625,0.36c-2.151,0 -4.614,-0.134 -4.809,-0.134c-0.04,0 -2.502,0.134 -3.677,0.134c-0.429,0 -0.624,-0.089 -0.624,-0.36c0,-0.133 0.079,-0.268 0.314,-0.268c0.351,0 0.82,-0.088 1.172,-0.18c0.783,-0.179 0.977,-1.165 1.133,-2.469c0.196,-1.885 0.196,-5.43 0.196,-9.741l0,-7.9l0,0Z" style="fill:#7f5b04;fill-rule:nonzero;"/><path id="path4178" d="M143.812,33.489c3.518,0 10.791,-2.337 10.791,-15.4c0,-10.772 -5.708,-16.563 -11.886,-16.563c-6.53,0 -11.419,4.937 -11.419,14.768c0,10.46 5.474,17.195 12.514,17.195ZM142.989,0c8.799,0 15.37,6.374 15.37,16.832c0,10.058 -6.179,18.36 -15.603,18.36c-10.714,0 -15.172,-9.56 -15.172,-17.64c0,-7.272 4.615,-17.552 15.405,-17.552l0,0Z" style="fill:#7f5b04;fill-rule:nonzero;"/><path id="path4180" d="M172.665,19.706c0.196,0 0.196,-0.136 0.155,-0.315l-3.714,-12.119c-0.193,-0.673 -0.391,-0.673 -0.584,0l-3.441,12.119c-0.08,0.226 0,0.315 0.116,0.315l7.468,0ZM168.601,1.752c0.466,-1.483 0.623,-1.752 0.859,-1.752c0.235,0 0.389,0.224 0.859,1.615c0.587,1.706 6.726,20.246 9.111,27.069c1.406,3.996 2.541,4.715 3.361,4.983c0.587,0.226 1.175,0.269 1.566,0.269c0.232,0 0.39,0.045 0.39,0.268c0,0.271 -0.352,0.36 -0.781,0.36c-0.588,0 -3.444,0 -6.139,-0.089c-0.746,-0.045 -1.172,-0.045 -1.172,-0.315c0,-0.179 0.114,-0.267 0.27,-0.312c0.235,-0.092 0.47,-0.497 0.235,-1.212l-3.635,-11.045c-0.077,-0.179 -0.156,-0.269 -0.35,-0.269l-8.409,0c-0.193,0 -0.313,0.135 -0.391,0.359l-2.346,7.945c-0.348,1.124 -0.546,2.201 -0.546,3.01c0,0.896 0.821,1.3 1.486,1.3l0.393,0c0.27,0 0.389,0.089 0.389,0.268c0,0.271 -0.235,0.36 -0.589,0.36c-0.938,0 -2.617,-0.134 -3.049,-0.134c-0.427,0 -2.579,0.134 -4.418,0.134c-0.508,0 -0.741,-0.089 -0.741,-0.36c0,-0.179 0.158,-0.268 0.351,-0.268c0.275,0 0.823,-0.043 1.135,-0.088c1.798,-0.271 2.582,-1.977 3.284,-4.222l8.877,-27.874l0,0Z" style="fill:#7f5b04;fill-rule:nonzero;"/><path id="path4182" d="M191.667,18.493c0,4.759 0.039,8.888 0.08,9.742c0.036,1.125 0.116,2.917 0.427,3.413c0.507,0.852 2.034,1.796 6.648,1.796c3.638,0 6.999,-1.529 9.305,-4.176c2.034,-2.291 3.128,-6.598 3.128,-10.73c0,-5.699 -2.15,-9.381 -3.753,-11.311c-3.675,-4.444 -8.134,-5.071 -12.784,-5.071c-0.783,0 -2.227,0.133 -2.544,0.312c-0.352,0.181 -0.468,0.404 -0.468,0.899c-0.039,1.526 -0.039,6.105 -0.039,9.56l0,5.566l0,0ZM188.384,13.646c0,-7.002 0,-8.259 -0.078,-9.695c-0.079,-1.529 -0.394,-2.244 -1.681,-2.56c-0.316,-0.088 -0.978,-0.134 -1.331,-0.134c-0.157,0 -0.314,-0.091 -0.314,-0.27c0,-0.268 0.197,-0.359 0.628,-0.359c1.758,0 4.224,0.133 4.416,0.133c0.47,0 2.935,-0.133 5.28,-0.133c3.87,0 11.025,-0.404 15.68,5.118c1.952,2.334 3.791,6.06 3.791,11.401c0,5.656 -2.034,10.011 -4.222,12.658c-1.681,2.022 -5.199,5.162 -11.85,5.162c-1.68,0 -3.751,-0.133 -5.431,-0.268c-1.724,-0.135 -3.053,-0.269 -3.248,-0.269c-0.076,0 -0.739,0 -1.562,0.045c-0.783,0 -1.683,0.09 -2.268,0.09c-0.431,0 -0.624,-0.09 -0.624,-0.361c0,-0.133 0.077,-0.268 0.311,-0.268c0.353,0 0.821,-0.088 1.171,-0.18c0.784,-0.179 0.979,-1.165 1.133,-2.469c0.199,-1.885 0.199,-5.43 0.199,-9.741l0,-7.9l0,0Z" style="fill:#7f5b04;fill-rule:nonzero;"/><path id="path4184" d="M28.141,73.152c0,1.226 -0.037,1.32 -0.506,1.635c-2.535,1.547 -6.36,2.044 -9.402,2.044c-9.561,0 -18.029,-5.271 -18.029,-17.816c0,-7.272 3.241,-12.362 6.789,-14.862c3.747,-2.638 7.221,-2.957 10.498,-2.957c2.691,0 6.125,0.546 6.904,0.732c0.819,0.18 2.187,0.452 3.082,0.498c0.47,0.045 0.549,0.227 0.549,0.545c0,0.5 -0.274,1.77 -0.274,7.455c0,0.725 -0.117,0.953 -0.431,0.953c-0.273,0 -0.35,-0.228 -0.388,-0.591c-0.119,-1.047 -0.312,-2.5 -1.326,-3.773c-1.171,-1.454 -4.293,-3.544 -8.701,-3.544c-2.148,0 -4.996,0.181 -7.727,2.82c-2.186,2.134 -3.59,5.543 -3.59,11.135c0,9.769 5.346,17.088 13.579,17.088c1.014,0 2.379,0 3.317,-0.501c0.584,-0.318 0.739,-0.906 0.739,-1.679l0,-4.274c0,-2.272 0,-4.001 -0.037,-5.365c-0.039,-1.545 -0.391,-2.27 -1.678,-2.59c-0.313,-0.09 -0.976,-0.135 -1.52,-0.135c-0.354,0 -0.586,-0.091 -0.586,-0.363c0,-0.365 0.272,-0.455 0.819,-0.455c2.028,0 4.487,0.136 5.656,0.136c1.21,0 3.278,-0.136 4.567,-0.136c0.508,0 0.78,0.09 0.78,0.455c0,0.272 -0.235,0.363 -0.508,0.363c-0.314,0 -0.585,0.045 -1.053,0.135c-1.053,0.229 -1.444,1.002 -1.484,2.59c-0.039,1.364 -0.039,3.184 -0.039,5.456l0,5.001l0,0Z" style="fill:#596459;fill-rule:nonzero;"/><path id="path4186" d="M28.141,73.152c0,1.226 -0.037,1.32 -0.506,1.635c-2.535,1.547 -6.36,2.044 -9.402,2.044c-9.561,0 -18.029,-5.271 -18.029,-17.816c0,-7.272 3.241,-12.362 6.789,-14.862c3.747,-2.638 7.221,-2.957 10.498,-2.957c2.691,0 6.125,0.546 6.904,0.732c0.819,0.18 2.187,0.452 3.082,0.498c0.47,0.045 0.549,0.227 0.549,0.545c0,0.5 -0.274,1.77 -0.274,7.455c0,0.725 -0.117,0.953 -0.431,0.953c-0.273,0 -0.35,-0.228 -0.388,-0.591c-0.119,-1.047 -0.312,-2.5 -1.326,-3.773c-1.171,-1.454 -4.293,-3.544 -8.701,-3.544c-2.148,0 -4.996,0.181 -7.727,2.82c-2.186,2.134 -3.59,5.543 -3.59,11.135c0,9.769 5.346,17.088 13.579,17.088c1.014,0 2.379,0 3.317,-0.501c0.584,-0.318 0.739,-0.906 0.739,-1.679l0,-4.274c0,-2.272 0,-4.001 -0.037,-5.365c-0.039,-1.545 -0.391,-2.27 -1.678,-2.59c-0.313,-0.09 -0.976,-0.135 -1.52,-0.135c-0.354,0 -0.586,-0.091 -0.586,-0.363c0,-0.365 0.272,-0.455 0.819,-0.455c2.028,0 4.487,0.136 5.656,0.136c1.21,0 3.278,-0.136 4.567,-0.136c0.508,0 0.78,0.09 0.78,0.455c0,0.272 -0.235,0.363 -0.508,0.363c-0.314,0 -0.585,0.045 -1.053,0.135c-1.053,0.229 -1.444,1.002 -1.484,2.59c-0.039,1.364 -0.039,3.184 -0.039,5.456l0,5.001l0,0Z" style="fill:none;stroke-width:0.24px;stroke:#7f5b04;"/><path id="path4188" d="M58.105,59.879c0,-10.183 -5.032,-16.498 -11.43,-16.498c-4.486,0 -9.6,2.91 -9.6,14.224c0,9.456 4.487,16.953 11.98,16.953c2.73,0 9.05,-1.543 9.05,-14.679ZM31.689,59.015c0,-7.771 4.412,-17.819 16.116,-17.819c9.716,0 15.763,6.592 15.763,17.001c0,10.41 -6.243,18.634 -16.154,18.634c-11.199,0 -15.725,-9.77 -15.725,-17.816Z" style="fill:#596459;fill-rule:nonzero;"/><path id="path4190" d="M58.105,59.879c0,-10.183 -5.032,-16.498 -11.43,-16.498c-4.486,0 -9.6,2.91 -9.6,14.224c0,9.456 4.487,16.953 11.98,16.953c2.73,0 9.05,-1.543 9.05,-14.679ZM31.689,59.015c0,-7.771 4.412,-17.819 16.116,-17.819c9.716,0 15.763,6.592 15.763,17.001c0,10.41 -6.243,18.634 -16.154,18.634c-11.199,0 -15.725,-9.77 -15.725,-17.816Z" style="fill:none;stroke-width:0.24px;stroke:#7f5b04;"/><path id="path4192" d="M66.135,55.016c0,-6.908 0,-8.182 -0.08,-9.638c-0.076,-1.544 -0.388,-2.27 -1.676,-2.59c-0.312,-0.089 -0.976,-0.135 -1.521,-0.135c-0.428,0 -0.663,-0.093 -0.663,-0.411c0,-0.314 0.273,-0.408 0.857,-0.408c2.068,0 4.526,0.137 5.697,0.137c0.937,0 3.395,-0.137 4.801,-0.137c0.586,0 0.856,0.094 0.856,0.408c0,0.318 -0.234,0.411 -0.626,0.411c-0.428,0 -0.66,0.046 -1.129,0.135c-1.053,0.229 -1.366,1.002 -1.445,2.59c-0.075,1.456 -0.075,2.73 -0.075,9.638l0,6.361c0,6.593 1.129,9.363 3.041,11.183c1.756,1.682 3.551,1.864 4.878,1.864c1.717,0 3.822,-0.638 5.385,-2.453c2.144,-2.5 2.263,-6.593 2.263,-11.274l0,-5.681c0,-6.908 0,-8.182 -0.077,-9.638c-0.08,-1.544 -0.393,-2.27 -1.68,-2.59c-0.311,-0.089 -0.975,-0.135 -1.404,-0.135c-0.43,0 -0.665,-0.093 -0.665,-0.411c0,-0.314 0.273,-0.408 0.821,-0.408c1.989,0 4.448,0.137 4.487,0.137c0.467,0 2.927,-0.137 4.448,-0.137c0.545,0 0.819,0.094 0.819,0.408c0,0.318 -0.232,0.411 -0.703,0.411c-0.427,0 -0.664,0.046 -1.131,0.135c-1.053,0.229 -1.367,1.002 -1.444,2.59c-0.079,1.456 -0.079,2.73 -0.079,9.638l0,4.863c0,5.046 -0.429,10.411 -3.705,13.681c-2.77,2.774 -5.581,3.271 -8.116,3.271c-2.069,0 -5.813,-0.135 -8.661,-3.136c-1.989,-2.09 -3.473,-5.454 -3.473,-12.043l0,-6.636l0,0Z" style="fill:#596459;fill-rule:nonzero;"/><path id="path4194" d="M66.135,55.016c0,-6.908 0,-8.182 -0.08,-9.638c-0.076,-1.544 -0.388,-2.27 -1.676,-2.59c-0.312,-0.089 -0.976,-0.135 -1.521,-0.135c-0.428,0 -0.663,-0.093 -0.663,-0.411c0,-0.314 0.273,-0.408 0.857,-0.408c2.068,0 4.526,0.137 5.697,0.137c0.937,0 3.395,-0.137 4.801,-0.137c0.586,0 0.856,0.094 0.856,0.408c0,0.318 -0.234,0.411 -0.626,0.411c-0.428,0 -0.66,0.046 -1.129,0.135c-1.053,0.229 -1.366,1.002 -1.445,2.59c-0.075,1.456 -0.075,2.73 -0.075,9.638l0,6.361c0,6.593 1.129,9.363 3.041,11.183c1.756,1.682 3.551,1.864 4.878,1.864c1.717,0 3.822,-0.638 5.385,-2.453c2.144,-2.5 2.263,-6.593 2.263,-11.274l0,-5.681c0,-6.908 0,-8.182 -0.077,-9.638c-0.08,-1.544 -0.393,-2.27 -1.68,-2.59c-0.311,-0.089 -0.975,-0.135 -1.404,-0.135c-0.43,0 -0.665,-0.093 -0.665,-0.411c0,-0.314 0.273,-0.408 0.821,-0.408c1.989,0 4.448,0.137 4.487,0.137c0.467,0 2.927,-0.137 4.448,-0.137c0.545,0 0.819,0.094 0.819,0.408c0,0.318 -0.232,0.411 -0.703,0.411c-0.427,0 -0.664,0.046 -1.131,0.135c-1.053,0.229 -1.367,1.002 -1.444,2.59c-0.079,1.456 -0.079,2.73 -0.079,9.638l0,4.863c0,5.046 -0.429,10.411 -3.705,13.681c-2.77,2.774 -5.581,3.271 -8.116,3.271c-2.069,0 -5.813,-0.135 -8.661,-3.136c-1.989,-2.09 -3.473,-5.454 -3.473,-12.043l0,-6.636l0,0Z" style="fill:none;stroke-width:0.24px;stroke:#7f5b04;"/><path id="path4196" d="M103.792,58.607c0,0.5 0.077,0.681 0.354,0.818c0.818,0.317 1.988,0.454 2.963,0.454c1.561,0 2.067,-0.183 2.768,-0.772c1.172,-0.999 2.305,-3.091 2.305,-6.817c0,-6.454 -3.668,-8.319 -5.969,-8.319c-0.975,0 -1.679,0.046 -2.067,0.182c-0.277,0.088 -0.354,0.275 -0.354,0.638l0,13.816ZM99.189,55.016c0,-6.908 0,-8.182 -0.078,-9.638c-0.079,-1.544 -0.389,-2.27 -1.68,-2.59c-0.309,-0.089 -0.973,-0.135 -1.518,-0.135c-0.432,0 -0.666,-0.093 -0.666,-0.411c0,-0.314 0.273,-0.408 0.859,-0.408c2.067,0 4.528,0.137 5.346,0.137c1.327,0 4.292,-0.137 5.5,-0.137c2.458,0 5.075,0.274 7.179,1.956c1.092,0.862 2.654,3.181 2.654,6.226c0,3.364 -1.212,6.454 -5.151,10.181c3.475,5.093 6.167,9.136 8.467,11.955c2.185,2.635 3.789,2.954 4.372,3.088c0.429,0.092 0.779,0.137 1.092,0.137c0.313,0 0.469,0.137 0.469,0.365c0,0.365 -0.275,0.453 -0.743,0.453l-3.708,0c-2.185,0 -3.16,-0.227 -4.174,-0.863c-1.678,-1.045 -3.163,-3.18 -5.344,-6.682c-1.562,-2.5 -3.357,-5.591 -3.863,-6.271c-0.195,-0.272 -0.43,-0.319 -0.701,-0.319l-3.397,-0.091c-0.193,0 -0.312,0.091 -0.312,0.364l0,0.637c0,4.225 0,7.817 0.196,9.724c0.116,1.319 0.351,2.32 1.522,2.5c0.585,0.095 1.442,0.183 1.912,0.183c0.314,0 0.466,0.137 0.466,0.365c0,0.318 -0.273,0.453 -0.779,0.453c-2.263,0 -5.151,-0.135 -5.736,-0.135c-0.739,0 -3.2,0.135 -4.759,0.135c-0.508,0 -0.78,-0.135 -0.78,-0.453c0,-0.228 0.154,-0.365 0.624,-0.365c0.586,0 1.051,-0.088 1.406,-0.183c0.778,-0.18 0.973,-1.181 1.129,-2.5c0.196,-1.907 0.196,-5.499 0.196,-9.679l0,-7.999l0,0Z" style="fill:#596459;fill-rule:nonzero;"/><path id="path4198" d="M103.792,58.607c0,0.5 0.077,0.681 0.354,0.818c0.818,0.317 1.988,0.454 2.963,0.454c1.561,0 2.067,-0.183 2.768,-0.772c1.172,-0.999 2.305,-3.091 2.305,-6.817c0,-6.454 -3.668,-8.319 -5.969,-8.319c-0.975,0 -1.679,0.046 -2.067,0.182c-0.277,0.088 -0.354,0.275 -0.354,0.638l0,13.816ZM99.189,55.016c0,-6.908 0,-8.182 -0.078,-9.638c-0.079,-1.544 -0.389,-2.27 -1.68,-2.59c-0.309,-0.089 -0.973,-0.135 -1.518,-0.135c-0.432,0 -0.666,-0.093 -0.666,-0.411c0,-0.314 0.273,-0.408 0.859,-0.408c2.067,0 4.528,0.137 5.346,0.137c1.327,0 4.292,-0.137 5.5,-0.137c2.458,0 5.075,0.274 7.179,1.956c1.092,0.862 2.654,3.181 2.654,6.226c0,3.364 -1.212,6.454 -5.151,10.181c3.475,5.093 6.167,9.136 8.467,11.955c2.185,2.635 3.789,2.954 4.372,3.088c0.429,0.092 0.779,0.137 1.092,0.137c0.313,0 0.469,0.137 0.469,0.365c0,0.365 -0.275,0.453 -0.743,0.453l-3.708,0c-2.185,0 -3.16,-0.227 -4.174,-0.863c-1.678,-1.045 -3.163,-3.18 -5.344,-6.682c-1.562,-2.5 -3.357,-5.591 -3.863,-6.271c-0.195,-0.272 -0.43,-0.319 -0.701,-0.319l-3.397,-0.091c-0.193,0 -0.312,0.091 -0.312,0.364l0,0.637c0,4.225 0,7.817 0.196,9.724c0.116,1.319 0.351,2.32 1.522,2.5c0.585,0.095 1.442,0.183 1.912,0.183c0.314,0 0.466,0.137 0.466,0.365c0,0.318 -0.273,0.453 -0.779,0.453c-2.263,0 -5.151,-0.135 -5.736,-0.135c-0.739,0 -3.2,0.135 -4.759,0.135c-0.508,0 -0.78,-0.135 -0.78,-0.453c0,-0.228 0.154,-0.365 0.624,-0.365c0.586,0 1.051,-0.088 1.406,-0.183c0.778,-0.18 0.973,-1.181 1.129,-2.5c0.196,-1.907 0.196,-5.499 0.196,-9.679l0,-7.999l0,0Z" style="fill:none;stroke-width:0.24px;stroke:#7f5b04;"/><path id="path4200" d="M133.916,42.015c0.114,-0.772 0.35,-1.181 0.664,-1.181c0.313,0 0.544,0.227 1.05,1.408l10.654,25.636l10.612,-25.95c0.314,-0.732 0.508,-1.094 0.859,-1.094c0.352,0 0.586,0.457 0.702,1.408l3.552,28.089c0.351,2.866 0.74,4.183 1.911,4.593c1.129,0.408 1.91,0.453 2.418,0.453c0.352,0 0.626,0.047 0.626,0.319c0,0.364 -0.47,0.499 -1.014,0.499c-0.977,0 -6.36,-0.135 -7.923,-0.271c-0.896,-0.092 -1.131,-0.228 -1.131,-0.5c0,-0.23 0.156,-0.365 0.428,-0.5c0.235,-0.092 0.354,-0.682 0.196,-1.954l-2.34,-19.999l-0.158,0l-8.503,20.635c-0.897,2.136 -1.095,2.545 -1.445,2.545c-0.352,0 -0.74,-0.911 -1.365,-2.273c-0.935,-2.092 -4.018,-9.046 -4.488,-10.318c-0.351,-0.954 -2.693,-6.682 -4.057,-10.089l-0.156,0l-2.028,18.089c-0.079,0.818 -0.12,1.41 -0.12,2.135c0,0.863 0.51,1.274 1.17,1.455c0.706,0.182 1.25,0.227 1.641,0.227c0.311,0 0.586,0.093 0.586,0.319c0,0.411 -0.35,0.499 -0.936,0.499c-1.639,0 -3.396,-0.135 -4.095,-0.135c-0.744,0 -2.62,0.135 -3.866,0.135c-0.389,0 -0.702,-0.088 -0.702,-0.499c0,-0.226 0.234,-0.319 0.624,-0.319c0.312,0 0.586,0 1.173,-0.137c1.089,-0.271 1.403,-2.043 1.597,-3.589l3.864,-29.636l0,0Z" style="fill:#596459;fill-rule:nonzero;"/><path id="path4202" d="M133.916,42.015c0.114,-0.772 0.35,-1.181 0.664,-1.181c0.313,0 0.544,0.227 1.05,1.408l10.654,25.636l10.612,-25.95c0.314,-0.732 0.508,-1.094 0.859,-1.094c0.352,0 0.586,0.457 0.702,1.408l3.552,28.089c0.351,2.866 0.74,4.183 1.911,4.593c1.129,0.408 1.91,0.453 2.418,0.453c0.352,0 0.626,0.047 0.626,0.319c0,0.364 -0.47,0.499 -1.014,0.499c-0.977,0 -6.36,-0.135 -7.923,-0.271c-0.896,-0.092 -1.131,-0.228 -1.131,-0.5c0,-0.23 0.156,-0.365 0.428,-0.5c0.235,-0.092 0.354,-0.682 0.196,-1.954l-2.34,-19.999l-0.158,0l-8.503,20.635c-0.897,2.136 -1.095,2.545 -1.445,2.545c-0.352,0 -0.74,-0.911 -1.365,-2.273c-0.935,-2.092 -4.018,-9.046 -4.488,-10.318c-0.351,-0.954 -2.693,-6.682 -4.057,-10.089l-0.156,0l-2.028,18.089c-0.079,0.818 -0.12,1.41 -0.12,2.135c0,0.863 0.51,1.274 1.17,1.455c0.706,0.182 1.25,0.227 1.641,0.227c0.311,0 0.586,0.093 0.586,0.319c0,0.411 -0.35,0.499 -0.936,0.499c-1.639,0 -3.396,-0.135 -4.095,-0.135c-0.744,0 -2.62,0.135 -3.866,0.135c-0.389,0 -0.702,-0.088 -0.702,-0.499c0,-0.226 0.234,-0.319 0.624,-0.319c0.312,0 0.586,0 1.173,-0.137c1.089,-0.271 1.403,-2.043 1.597,-3.589l3.864,-29.636l0,0Z" style="fill:none;stroke-width:0.24px;stroke:#7f5b04;"/><path id="path4204" d="M170.67,55.016c0,-6.908 0,-8.182 -0.078,-9.638c-0.081,-1.544 -0.392,-2.27 -1.679,-2.59c-0.31,-0.089 -0.974,-0.135 -1.521,-0.135c-0.428,0 -0.664,-0.093 -0.664,-0.411c0,-0.314 0.272,-0.408 0.857,-0.408c1.057,0 2.186,0.044 3.161,0.044c1.016,0.05 1.914,0.093 2.458,0.093c1.248,0 9.015,0 9.757,-0.043c0.74,-0.094 1.365,-0.186 1.678,-0.274c0.194,-0.045 0.426,-0.183 0.622,-0.183c0.197,0 0.233,0.183 0.233,0.407c0,0.319 -0.194,0.866 -0.31,2.957c-0.04,0.454 -0.119,2.453 -0.195,2.999c-0.04,0.227 -0.118,0.501 -0.391,0.501c-0.272,0 -0.349,-0.227 -0.349,-0.637c0,-0.319 -0.041,-1.09 -0.236,-1.636c-0.274,-0.818 -0.66,-1.367 -2.613,-1.634c-0.666,-0.094 -4.763,-0.187 -5.542,-0.187c-0.194,0 -0.271,0.138 -0.271,0.454l0,11.501c0,0.32 0.037,0.502 0.271,0.502c0.857,0 5.347,0 6.244,-0.091c0.934,-0.091 1.522,-0.228 1.873,-0.682c0.274,-0.364 0.426,-0.592 0.623,-0.592c0.158,0 0.273,0.092 0.273,0.365c0,0.272 -0.155,1 -0.311,3.317c-0.04,0.91 -0.159,2.728 -0.159,3.045c0,0.365 0,0.864 -0.348,0.864c-0.273,0 -0.352,-0.181 -0.352,-0.408c-0.041,-0.456 -0.041,-1.046 -0.156,-1.638c-0.192,-0.908 -0.742,-1.59 -2.182,-1.771c-0.745,-0.092 -4.607,-0.137 -5.541,-0.137c-0.198,0 -0.235,0.182 -0.235,0.456l0,3.589c0,1.545 -0.039,5.725 0,7.046c0.077,3.136 0.699,3.817 4.682,3.817c1.013,0 2.653,0 3.667,-0.546c1.013,-0.543 1.483,-1.501 1.753,-3.362c0.08,-0.499 0.16,-0.683 0.433,-0.683c0.31,0 0.31,0.365 0.31,0.819c0,1.046 -0.31,4.136 -0.509,5.044c-0.27,1.184 -0.623,1.184 -2.105,1.184c-2.927,0 -5.074,-0.095 -6.75,-0.139c-1.679,-0.088 -2.887,-0.135 -4.057,-0.135c-0.43,0 -1.288,0 -2.224,0.047c-0.897,0 -1.912,0.088 -2.693,0.088c-0.509,0 -0.78,-0.135 -0.78,-0.453c0,-0.228 0.157,-0.365 0.625,-0.365c0.584,0 1.053,-0.088 1.402,-0.183c0.782,-0.18 0.978,-1.181 1.133,-2.5c0.196,-1.907 0.196,-5.498 0.196,-9.679l0,-7.999l0,0Z" style="fill:#596459;fill-rule:nonzero;"/><path id="path4206" d="M170.67,55.016c0,-6.908 0,-8.182 -0.078,-9.638c-0.081,-1.544 -0.392,-2.27 -1.679,-2.59c-0.31,-0.089 -0.974,-0.135 -1.521,-0.135c-0.428,0 -0.664,-0.093 -0.664,-0.411c0,-0.314 0.272,-0.408 0.857,-0.408c1.057,0 2.186,0.044 3.161,0.044c1.016,0.05 1.914,0.093 2.458,0.093c1.248,0 9.015,0 9.757,-0.043c0.74,-0.094 1.365,-0.186 1.678,-0.274c0.194,-0.045 0.426,-0.183 0.622,-0.183c0.197,0 0.233,0.183 0.233,0.407c0,0.319 -0.194,0.866 -0.31,2.957c-0.04,0.454 -0.119,2.453 -0.195,2.999c-0.04,0.227 -0.118,0.501 -0.391,0.501c-0.272,0 -0.349,-0.227 -0.349,-0.637c0,-0.319 -0.041,-1.09 -0.236,-1.636c-0.274,-0.818 -0.66,-1.367 -2.613,-1.634c-0.666,-0.094 -4.763,-0.187 -5.542,-0.187c-0.194,0 -0.271,0.138 -0.271,0.454l0,11.501c0,0.32 0.037,0.502 0.271,0.502c0.857,0 5.347,0 6.244,-0.091c0.934,-0.091 1.522,-0.228 1.873,-0.682c0.274,-0.364 0.426,-0.592 0.623,-0.592c0.158,0 0.273,0.092 0.273,0.365c0,0.272 -0.155,1 -0.311,3.317c-0.04,0.91 -0.159,2.728 -0.159,3.045c0,0.365 0,0.864 -0.348,0.864c-0.273,0 -0.352,-0.181 -0.352,-0.408c-0.041,-0.456 -0.041,-1.046 -0.156,-1.638c-0.192,-0.908 -0.742,-1.59 -2.182,-1.771c-0.745,-0.092 -4.607,-0.137 -5.541,-0.137c-0.198,0 -0.235,0.182 -0.235,0.456l0,3.589c0,1.545 -0.039,5.725 0,7.046c0.077,3.136 0.699,3.817 4.682,3.817c1.013,0 2.653,0 3.667,-0.546c1.013,-0.543 1.483,-1.501 1.753,-3.362c0.08,-0.499 0.16,-0.683 0.433,-0.683c0.31,0 0.31,0.365 0.31,0.819c0,1.046 -0.31,4.136 -0.509,5.044c-0.27,1.184 -0.623,1.184 -2.105,1.184c-2.927,0 -5.074,-0.095 -6.75,-0.139c-1.679,-0.088 -2.887,-0.135 -4.057,-0.135c-0.43,0 -1.288,0 -2.224,0.047c-0.897,0 -1.912,0.088 -2.693,0.088c-0.509,0 -0.78,-0.135 -0.78,-0.453c0,-0.228 0.157,-0.365 0.625,-0.365c0.584,0 1.053,-0.088 1.402,-0.183c0.782,-0.18 0.978,-1.181 1.133,-2.5c0.196,-1.907 0.196,-5.498 0.196,-9.679l0,-7.999l0,0Z" style="fill:none;stroke-width:0.24px;stroke:#7f5b04;"/><path id="path4208" d="M199.541,44.379l-5.812,0.183c-2.262,0.09 -3.2,0.317 -3.788,1.318c-0.386,0.679 -0.583,1.228 -0.661,1.59c-0.079,0.364 -0.197,0.547 -0.428,0.547c-0.276,0 -0.353,-0.229 -0.353,-0.729c0,-0.729 0.741,-4.862 0.82,-5.227c0.115,-0.59 0.236,-0.865 0.469,-0.865c0.311,0 0.702,0.458 1.679,0.546c1.13,0.136 2.613,0.229 3.898,0.229l15.454,0c1.248,0 2.107,-0.137 2.69,-0.229c0.585,-0.133 0.899,-0.227 1.057,-0.227c0.27,0 0.309,0.274 0.309,0.956c0,0.955 -0.116,4.088 -0.116,5.272c-0.039,0.454 -0.117,0.728 -0.351,0.728c-0.314,0 -0.391,-0.23 -0.429,-0.91l-0.04,-0.5c-0.079,-1.181 -1.132,-2.453 -4.604,-2.545l-4.917,-0.137l0,18.636c0,4.18 0,7.772 0.196,9.725c0.116,1.273 0.35,2.274 1.521,2.454c0.548,0.095 1.407,0.183 1.992,0.183c0.429,0 0.624,0.137 0.624,0.365c0,0.318 -0.311,0.453 -0.744,0.453c-2.573,0 -5.033,-0.135 -6.124,-0.135c-0.9,0 -3.355,0.135 -4.917,0.135c-0.509,0 -0.778,-0.135 -0.778,-0.453c0,-0.228 0.156,-0.365 0.623,-0.365c0.584,0 1.053,-0.088 1.404,-0.183c0.781,-0.18 1.015,-1.181 1.134,-2.5c0.192,-1.907 0.192,-5.499 0.192,-9.679l0,-18.636l0,0Z" style="fill:#596459;fill-rule:nonzero;"/><path id="path4210" d="M199.541,44.379l-5.812,0.183c-2.262,0.09 -3.2,0.317 -3.788,1.318c-0.386,0.679 -0.583,1.228 -0.661,1.59c-0.079,0.364 -0.197,0.547 -0.428,0.547c-0.276,0 -0.353,-0.229 -0.353,-0.729c0,-0.729 0.741,-4.862 0.82,-5.227c0.115,-0.59 0.236,-0.865 0.469,-0.865c0.311,0 0.702,0.458 1.679,0.546c1.13,0.136 2.613,0.229 3.898,0.229l15.454,0c1.248,0 2.107,-0.137 2.69,-0.229c0.585,-0.133 0.899,-0.227 1.057,-0.227c0.27,0 0.309,0.274 0.309,0.956c0,0.955 -0.116,4.088 -0.116,5.272c-0.039,0.454 -0.117,0.728 -0.351,0.728c-0.314,0 -0.391,-0.23 -0.429,-0.91l-0.04,-0.5c-0.079,-1.181 -1.132,-2.453 -4.604,-2.545l-4.917,-0.137l0,18.636c0,4.18 0,7.772 0.196,9.725c0.116,1.273 0.35,2.274 1.521,2.454c0.548,0.095 1.407,0.183 1.992,0.183c0.429,0 0.624,0.137 0.624,0.365c0,0.318 -0.311,0.453 -0.744,0.453c-2.573,0 -5.033,-0.135 -6.124,-0.135c-0.9,0 -3.355,0.135 -4.917,0.135c-0.509,0 -0.778,-0.135 -0.778,-0.453c0,-0.228 0.156,-0.365 0.623,-0.365c0.584,0 1.053,-0.088 1.404,-0.183c0.781,-0.18 1.015,-1.181 1.134,-2.5c0.192,-1.907 0.192,-5.499 0.192,-9.679l0,-18.636l0,0Z" style="fill:none;stroke-width:0.24px;stroke:#7f5b04;"/></svg>